<?xml version="1.0" encoding="iso-8859-1"?>
<!-- Generator: Adobe Illustrator 19.0.0, SVG Export Plug-In . SVG Version: 6.00 Build 0)  -->
<svg xmlns="http://www.w3.org/2000/svg" xmlns:xlink="http://www.w3.org/1999/xlink" version="1.1" id="Capa_1" x="0px" y="0px" viewBox="0 0 511.999 511.999" style="enable-background:new 0 0 511.999 511.999;" xml:space="preserve" width="512px" height="512px">
<g>
	<g>
		<path d="M112.198,34.086c-28.194,0-51.129,22.935-51.129,51.129c0,4.71,3.816,8.522,8.522,8.522s8.522-3.811,8.522-8.522    c0-18.799,15.291-34.086,34.086-34.086c4.706,0,8.522-3.811,8.522-8.522C120.72,37.897,116.905,34.086,112.198,34.086z" fill="#ffffff"/>
	</g>
</g>
<g>
	<g>
		<path d="M401.931,34.086c-28.194,0-51.129,22.935-51.129,51.129c0,4.71,3.816,8.522,8.522,8.522s8.522-3.811,8.522-8.522    c0-18.799,15.291-34.086,34.086-34.086c4.706,0,8.522-3.811,8.522-8.522C410.452,37.897,406.637,34.086,401.931,34.086z" fill="#ffffff"/>
	</g>
</g>
<g>
	<g>
		<path d="M426.431,393.04v-27.936c34.086-3.553,68.172-14.946,68.172-37.024c0-22.078-34.086-33.47-68.172-37.024V262.77    c31.956-3.42,59.651-13.49,59.651-32.688c0-19.215-27.695-29.276-59.651-32.688v-30.886    c36.217-10.885,60.183-43.209,60.183-81.292C486.613,38.23,448.653,0,401.665,0c-34.318,0-63.808,20.403-77.299,49.704    l-25.883-45.41c-3.029-5.309-11.734-5.309-14.763,0l-26.671,46.702l-26.68-46.702c-3.029-5.309-11.763-5.309-14.792,0    l-25.946,45.41C176.139,20.403,146.515,0,112.197,0C65.21,0,26.45,38.23,26.45,85.215c0,38.083,25.032,70.407,59.118,81.292    v30.886c-29.825,3.412-59.651,13.473-59.651,32.688c0,19.198,29.825,29.268,59.651,32.688v28.286    c-31.956,3.553-68.172,14.946-68.172,37.024s36.217,33.47,68.172,37.024v27.936c-40.477,3.445-85.215,16.003-85.215,41.559    c0,25.556,44.738,38.114,85.215,41.559v26.613c0,4.71,4.881,9.229,9.587,9.229h34.086c4.706,0,7.456-4.519,7.456-9.229v-26.613    c42.608-3.445,85.215-16.003,85.215-41.559c0-25.556-42.608-38.114-85.215-41.559v-27.936    c34.086-3.553,68.172-14.946,68.172-37.024c0-22.078-34.086-33.47-68.172-37.024V262.77c31.956-3.42,59.651-13.49,59.651-32.688    c0-19.215-27.695-29.276-59.651-32.688v-30.886c36.217-10.885,60.183-43.209,60.183-81.292c0-4.431-0.075-8.786-0.731-13.036    l26.695-46.481L249.6,72.4c3.029,5.309,11.8,5.309,14.829,0l26.705-46.702l26.571,46.481c-0.656,4.25-1.526,8.605-1.526,13.036    c0,38.083,25.036,70.407,59.122,81.292v30.886c-29.825,3.412-59.651,13.473-59.651,32.688c0,19.198,29.825,29.268,59.651,32.688    v28.286c-31.956,3.553-68.172,14.946-68.172,37.024c0,22.078,36.217,33.47,68.172,37.024v27.936    c-40.477,3.445-85.215,16.003-85.215,41.559c0,25.556,44.738,38.114,85.215,41.559v26.613c0,4.71,4.881,9.229,9.587,9.229h34.086    c4.706,0,7.456-4.519,7.456-9.229v-26.613c42.608-3.445,85.215-16.003,85.215-41.559    C511.645,409.042,469.038,396.485,426.431,393.04z M180.104,230.082c0,3.445-16.319,13.714-52.174,16.435    c-4.444,0.333-8.276,4.036-8.276,8.497v43.839c0,4.469,3.99,8.18,8.451,8.497c40.119,2.854,60.52,14.829,60.52,20.73    c0,5.9-20.534,17.875-60.654,20.73c-4.461,0.316-8.318,4.028-8.318,8.497v43.681c0,4.519,4.065,8.255,8.58,8.505    c51.379,2.879,77.435,17.642,77.435,25.107c0,7.465-26.189,22.228-77.568,25.107c-4.514,0.25-8.447,3.986-8.447,8.505v26.746    h-17.043v-26.746c0-4.519-3-8.255-7.515-8.505c-51.379-2.879-76.902-17.642-76.902-25.107c0-7.465,25.39-22.228,76.769-25.107    c4.514-0.25,7.648-3.986,7.648-8.505v-43.681c0-4.469-2.925-8.18-7.386-8.497c-40.119-2.854-59.988-14.829-59.988-20.73    c0-5.9,19.735-17.875,59.855-20.73c4.461-0.316,7.519-4.028,7.519-8.497v-43.839c0-4.461-2.9-8.164-7.344-8.497    c-35.854-2.721-51.508-12.99-51.508-16.436s15.52-13.723,51.371-16.436c4.444-0.333,7.481-4.036,7.481-8.497v-35.145    c4.261,0.279,5.645,0.427,8.522,0.427s6.391-0.148,8.522-0.427v35.145c0,4.461,3.97,8.164,8.413,8.497    C163.918,216.359,180.104,226.636,180.104,230.082z M112.198,153.388c-37.59,0-68.172-30.583-68.172-68.172    c0-37.59,30.583-68.172,68.172-68.172c37.589,0,68.172,30.583,68.172,68.172S149.788,153.388,112.198,153.388z M333.759,85.215    c0-37.59,30.583-68.172,68.172-68.172s68.172,30.583,68.172,68.172c0,37.59-30.583,68.172-68.172,68.172    S333.759,122.805,333.759,85.215z M417.967,459.706c-4.515,0.25-8.58,3.986-8.58,8.505v26.746h-17.043v-26.746    c0-4.519-3-8.255-7.515-8.505c-51.379-2.879-76.902-17.642-76.902-25.107c0-7.465,25.39-22.228,76.769-25.107    c4.514-0.25,7.648-3.986,7.648-8.505v-43.681c0-4.469-2.925-8.18-7.386-8.497c-40.119-2.854-59.988-14.829-59.988-20.73    c0-5.9,19.735-17.875,59.855-20.73c4.461-0.316,7.519-4.028,7.519-8.497v-43.839c0-4.461-2.9-8.164-7.344-8.497    c-35.854-2.721-51.508-12.99-51.508-16.436s15.52-13.723,51.371-16.436c4.444-0.333,7.481-4.036,7.481-8.497v-35.145    c4.261,0.279,5.645,0.426,8.522,0.426s6.391-0.148,8.522-0.427v35.145c0,4.461,3.97,8.164,8.413,8.497    c35.85,2.713,52.036,12.99,52.036,16.436c0,3.446-16.319,13.714-52.174,16.435c-4.444,0.333-8.276,4.036-8.276,8.497v43.839    c0,4.469,3.99,8.18,8.451,8.497c40.119,2.854,60.52,14.829,60.52,20.73c0,5.9-20.534,17.875-60.654,20.729    c-4.461,0.316-8.318,4.028-8.318,8.497v43.681c0,4.519,4.065,8.255,8.58,8.505c51.379,2.879,77.168,17.642,77.168,25.107    C495.134,442.061,469.345,456.826,417.967,459.706z" fill="#ffffff"/>
	</g>
</g>
<g>
</g>
<g>
</g>
<g>
</g>
<g>
</g>
<g>
</g>
<g>
</g>
<g>
</g>
<g>
</g>
<g>
</g>
<g>
</g>
<g>
</g>
<g>
</g>
<g>
</g>
<g>
</g>
<g>
</g>
</svg>
